<svg preserveAspectRatio="none" width="100%" height="100%" overflow="visible" style="display: block;" viewBox="0 0 19.0893 16.8632" fill="none" xmlns="http://www.w3.org/2000/svg">
<path id="Icon" d="M16.9111 2.17819C16.4854 1.75236 15.9801 1.41456 15.4239 1.18409C14.8677 0.953623 14.2715 0.835 13.6694 0.835C13.0673 0.835 12.4712 0.953623 11.9149 1.18409C11.3587 1.41456 10.8534 1.75236 10.4277 2.17819L9.54441 3.06152L8.66108 2.17819C7.80133 1.31844 6.63527 0.835446 5.41941 0.835446C4.20355 0.835446 3.03749 1.31844 2.17774 2.17819C1.318 3.03793 0.835 4.20399 0.835 5.41985C0.835 6.63572 1.318 7.80178 2.17774 8.66152L3.06108 9.54485L9.54441 16.0282L16.0277 9.54485L16.9111 8.66152C17.3369 8.23589 17.6747 7.73053 17.9052 7.17432C18.1356 6.6181 18.2543 6.02193 18.2543 5.41985C18.2543 4.81778 18.1356 4.22161 17.9052 3.66539C17.6747 3.10918 17.3369 2.60382 16.9111 2.17819V2.17819Z" stroke="var(--stroke-0, #414651)" stroke-width="1.67" stroke-linecap="round" stroke-linejoin="round"/>
</svg>
