<svg width="16" height="15" viewBox="0 0 16 15.2736" fill="none" xmlns="http://www.w3.org/2000/svg">
<path d="M7.84522 0.391904L7.34831 0.221084C5.70247 -0.344658 3.87908 0.199752 2.81282 1.57522L2.5456 1.91992C2.49521 1.98491 2.42739 2.03421 2.35001 2.06204L2.19453 2.11796C0.434663 2.75111 -0.453735 4.71355 0.231764 6.4537L0.554903 7.27402C0.794449 7.88213 0.9644 8.51541 1.06144 9.16175L1.13033 9.62048C1.61824 12.8699 4.40975 15.2736 7.69561 15.2736H8.30437C11.5902 15.2736 14.3818 12.8699 14.8696 9.62048L14.9385 9.16175C15.0356 8.51541 15.2055 7.88213 15.4451 7.27402L15.7682 6.4537C16.4537 4.71355 15.5653 2.75111 13.8054 2.11799L13.65 2.06207C13.5726 2.03424 13.5048 1.98494 13.4544 1.91995L13.1872 1.57525C12.121 0.199752 10.2975 -0.344658 8.6517 0.221084L8.15478 0.391904C8.05449 0.426364 7.94555 0.426364 7.84522 0.391904Z" fill="#EFEDEE"/>
<path d="M9.31516 14.953H8.68369C5.27518 14.953 2.37945 12.6335 1.87333 9.49776L1.80186 9.05509C1.70119 8.43137 1.52493 7.82026 1.27644 7.23341L0.941234 6.44183C0.230123 4.76256 1.15169 2.8688 2.97727 2.25782L3.13853 2.20387C3.21878 2.177 3.28918 2.12944 3.34143 2.06673L3.61862 1.7341C4.526 0.645189 5.96196 0.0965969 7.3912 0.235852L7.34834 0.221116C5.70247 -0.344658 3.87908 0.199752 2.81282 1.57522L2.5456 1.91992C2.49521 1.98491 2.42739 2.0342 2.35001 2.06204L2.19453 2.11796C0.434663 2.75111 -0.453735 4.71355 0.231764 6.4537L0.554903 7.27398C0.794449 7.8821 0.9644 8.51538 1.06144 9.16172L1.13033 9.62044C1.61824 12.8699 4.40975 15.2735 7.69561 15.2735H8.30437C9.1529 15.2735 9.9681 15.1132 10.7195 14.8195C10.265 14.9074 9.79528 14.953 9.31516 14.953Z" fill="#E4E1E5"/>
<path d="M6.22586 4.61072C7.00633 4.45223 7.49283 3.60379 7.31248 2.71566C7.13214 1.82753 6.35324 1.23603 5.57277 1.39452C4.7923 1.553 4.3058 2.40145 4.48615 3.28958C4.66649 4.17771 5.44539 4.7692 6.22586 4.61072Z" fill="#FFC3E5"/>
<path d="M3.55229 7.03417C4.28664 6.6525 4.52987 5.66567 4.09556 4.83001C3.66124 3.99436 2.71385 3.62633 1.9795 4.00799C1.24515 4.38966 1.00192 5.37649 1.43623 6.21214C1.87055 7.0478 2.81794 7.41583 3.55229 7.03417Z" fill="#FFC3E5"/>
<path d="M11.5427 3.29085C11.7231 2.40272 11.2366 1.55428 10.4561 1.39579C9.67563 1.23731 8.89674 1.8288 8.71639 2.71693C8.53605 3.60506 9.02255 4.45351 9.80302 4.61199C10.5835 4.77048 11.3624 4.17898 11.5427 3.29085Z" fill="#FFC3E5"/>
<path d="M14.5814 6.21165C15.0157 5.376 14.7725 4.38917 14.0381 4.0075C13.3038 3.62584 12.3564 3.99387 11.9221 4.82952C11.4878 5.66518 11.731 6.65201 12.4653 7.03368C13.1997 7.41534 14.1471 7.04731 14.5814 6.21165Z" fill="#FFC3E5"/>
<path d="M10.7718 8.66618C10.4131 8.51232 10.1068 8.25591 9.88668 7.93358C9.45266 7.29798 8.72263 6.8807 7.89488 6.8807C7.02975 6.8807 6.27147 7.33659 5.8463 8.02113C5.63765 8.35704 5.32969 8.61914 4.97596 8.79588C3.91709 9.325 3.24224 10.125 3.24224 11.0205C3.24224 12.6138 5.37857 13.9054 8.01387 13.9054C10.6492 13.9054 12.7855 12.6138 12.7855 11.0205C12.7854 10.0484 11.9902 9.18884 10.7718 8.66618Z" fill="#FFC3E5"/>
</svg>
