<svg width="16" height="16" viewBox="0 0 16 16.0226" fill="none" xmlns="http://www.w3.org/2000/svg">
<path d="M0.75876 15.3523C-0.217347 14.4252 -0.256778 12.8824 0.670301 11.9066L7.04191 5.1983C7.96899 4.2222 9.51184 4.18277 10.4876 5.10985C11.4637 6.03692 11.5031 7.57977 10.5761 8.55553L4.20445 15.2638C3.27737 16.2399 1.73452 16.2794 0.75876 15.3523Z" fill="#414651"/>
<path d="M6.02263 9.81036C5.4744 9.28956 5.45212 8.42316 5.97292 7.87494L7.66421 6.09415C8.18501 5.54593 9.05141 5.52365 9.59963 6.04444C10.1479 6.56524 10.1701 7.43163 9.64935 7.97985L7.95804 9.76064C7.43725 10.3089 6.57085 10.3312 6.02263 9.81036Z" fill="white"/>
<path d="M11.6746 8.94884L12.999 9.51113C13.5349 9.73844 14.14 9.73844 14.6756 9.51113L16 8.94884L15.4378 10.2733C15.2104 10.8092 15.2104 11.4143 15.4378 11.9498L16 13.2743L14.6756 12.712C14.1397 12.4847 13.5346 12.4847 12.999 12.712L11.6746 13.2743L12.2369 11.9498C12.4642 11.414 12.4642 10.8088 12.2369 10.2733L11.6746 8.94884Z" fill="#414651"/>
<path d="M11.7555 0.312251L12.7498 0.848815C13.1519 1.06584 13.6251 1.11007 14.0605 0.97156L15.1371 0.629049L14.6005 1.62333C14.3835 2.0255 14.3392 2.49863 14.4778 2.93406L14.8203 4.01062L13.826 3.47405C13.4238 3.25703 12.9507 3.2128 12.5153 3.35131L11.4387 3.69382L11.9753 2.69954C12.1923 2.29738 12.2365 1.82424 12.098 1.38881L11.7555 0.312251Z" fill="#414651"/>
<path d="M7.01928 0L7.74373 0.390859C8.03687 0.548915 8.38144 0.581139 8.69858 0.48034L9.48303 0.23074L9.09218 0.955196C8.93412 1.24834 8.90189 1.5929 9.00269 1.91004L9.25229 2.6945L8.52784 2.30364C8.2347 2.14558 7.89013 2.11336 7.57299 2.21416L6.78854 2.46376L7.17939 1.7393C7.33745 1.44616 7.36968 1.1016 7.26888 0.784456L7.01928 0Z" fill="#414651"/>
</svg>
