<svg width="158" height="30" viewBox="0 0 158 30" fill="none" xmlns="http://www.w3.org/2000/svg">
<g>
<path d="M29.7559 1.06803C29.7559 0.226214 28.831 -0.275924 28.1518 0.181907L23.4406 3.40149C23.1804 3.37196 22.9203 3.37196 22.6457 3.37196H10.5208C10.2607 3.37196 9.9861 3.37196 9.72597 3.40149L5.01472 0.181907C4.33549 -0.290692 3.41061 0.211446 3.41061 1.06803V6.19279C3.295 6.29617 3.17937 6.39955 3.07821 6.5177C1.17059 8.46717 0 11.1551 0 14.1236C0 18.4065 2.44233 22.0987 5.96853 23.8267C6.27202 23.9744 6.57549 24.1073 6.90788 24.2254C7.0813 24.2845 7.25476 24.3436 7.44263 24.4026L24.3365 30V24.7276C26.5766 24.3731 28.5709 23.2802 30.1028 21.7147C32.0104 19.7653 33.181 17.0773 33.181 14.1088C33.181 10.9631 31.8659 8.14226 29.7704 6.17802V1.05326L29.7559 1.06803ZM8.84439 17.1955C7.67381 17.1955 6.72005 16.2208 6.72005 15.0245C6.72005 13.8282 7.67381 12.8535 8.84439 12.8535C10.015 12.8535 10.9833 13.8282 10.9833 15.0245C10.9833 16.2208 10.0294 17.1955 8.84439 17.1955ZM16.576 16.5604C15.7378 16.5604 15.0731 15.8663 15.0731 15.0245C15.0731 14.1827 15.7523 13.4885 16.576 13.4885C17.3998 13.4885 18.079 14.1827 18.079 15.0245C18.079 15.8663 17.3998 16.5604 16.576 16.5604ZM24.3221 17.1955C23.1515 17.1955 22.1977 16.2208 22.1977 15.0245C22.1977 13.8282 23.1515 12.8535 24.3221 12.8535C25.4927 12.8535 26.4609 13.8282 26.4609 15.0245C26.4609 16.2208 25.5072 17.1955 24.3221 17.1955Z" fill="#50C2B8"/>
<path d="M52.1417 14.7C52.1417 15.1579 52.1561 15.6009 52.185 16.0588C52.2139 16.5166 52.2573 16.9744 52.3006 17.4323H52.0983C51.9249 16.9449 51.737 16.4871 51.5492 16.0588C51.3613 15.6157 51.159 15.2169 50.9566 14.8625L47.3726 8.46763C47.1414 8.0541 46.9102 7.75872 46.7079 7.53719C46.5055 7.33043 46.1732 7.22705 45.7396 7.22705H43.9042C42.936 7.22705 42.4446 7.72919 42.4446 8.71869V22.8081H46.3177V15.0693C46.3177 14.641 46.3032 14.2127 46.2599 13.7548C46.2165 13.297 46.1731 12.8539 46.1153 12.4109H46.3177C46.4333 12.8539 46.5778 13.2822 46.7657 13.7253C46.9391 14.1684 47.1125 14.5671 47.3004 14.9511L51.0289 21.597C51.2457 22.0106 51.4624 22.3059 51.6792 22.5275C51.896 22.7342 52.2139 22.8376 52.6619 22.8376H54.5117C55.4655 22.8376 55.9425 22.3355 55.9425 21.346V7.25659H52.1128L52.1417 14.7296V14.7Z" fill="#50C2B8"/>
<path d="M71.4058 7.22595H67.1137L64.9315 12.4836C64.8159 12.7938 64.7147 13.1482 64.628 13.5174C64.5413 13.8867 64.4835 14.2411 64.4112 14.5808H64.1511C64.0788 14.2559 64.0066 13.9014 63.9343 13.5322C63.8621 13.163 63.7753 12.8233 63.6308 12.4984L61.4197 7.21118H57.1276L62.1856 17.8151V22.7922H66.3333V17.7708L71.3769 7.21118L71.4058 7.22595Z" fill="#50C2B8"/>
<path d="M80.1337 7.52243C79.8736 7.33043 79.5845 7.22705 79.2377 7.22705H75.408C75.0756 7.22705 74.7721 7.33043 74.512 7.52243C74.2519 7.71442 74.0785 7.99503 73.9918 8.33471L69.8152 22.8081H74.064L74.9889 19.1011H79.6712L80.5962 22.8081H84.8449L80.6684 8.33471C80.5817 7.99503 80.4083 7.71442 80.1482 7.52243H80.1337ZM75.7404 16.0588L76.7376 12.0564C76.7954 11.8054 76.8532 11.5248 76.8965 11.2294C76.9544 10.934 76.9832 10.6682 77.0121 10.4023H77.6047C77.648 10.6534 77.6914 10.934 77.7347 11.2294C77.7781 11.5248 77.8359 11.7906 77.8937 12.0564L78.8908 16.0588H75.726H75.7404Z" fill="#50C2B8"/>
<path d="M95.7421 14.7C95.7421 15.1579 95.7566 15.6009 95.7855 16.0588C95.8144 16.5166 95.8577 16.9744 95.9011 17.4323H95.6987C95.5253 16.9449 95.3374 16.4871 95.1496 16.0588C94.9617 15.6157 94.7594 15.2169 94.5571 14.8625L90.9731 8.46763C90.7419 8.0541 90.5106 7.75872 90.3083 7.53719C90.106 7.33043 89.7736 7.22705 89.34 7.22705H87.5047C86.5364 7.22705 86.0451 7.72919 86.0451 8.71869V22.8081H89.9181V15.0693C89.9181 14.641 89.9037 14.2127 89.8603 13.7548C89.817 13.297 89.7736 12.8539 89.7158 12.4109H89.9181C90.0337 12.8539 90.1782 13.2822 90.3661 13.7253C90.5395 14.1684 90.713 14.5671 90.9008 14.9511L94.6293 21.597C94.8461 22.0106 95.0629 22.3059 95.2797 22.5275C95.4965 22.7342 95.8144 22.8376 96.2624 22.8376H98.1122C99.066 22.8376 99.5429 22.3355 99.5429 21.346V7.25659H95.7132L95.7421 14.7296V14.7Z" fill="#50C2B8"/>
<path d="M115.006 7.22595H110.714L108.532 12.4836C108.416 12.7938 108.315 13.1482 108.228 13.5174C108.142 13.8867 108.084 14.2411 108.012 14.5808H107.752C107.679 14.2559 107.607 13.9014 107.535 13.5322C107.462 13.163 107.376 12.8233 107.231 12.4984L105.02 7.21118H100.728L105.786 17.8151V22.7922H109.934V17.7708L114.977 7.21118L115.006 7.22595Z" fill="#50C2B8"/>
<path d="M123.72 7.52243C123.46 7.33043 123.171 7.22705 122.824 7.22705H118.994C118.662 7.22705 118.358 7.33043 118.098 7.52243C117.838 7.71442 117.665 7.99503 117.578 8.33471L113.402 22.8081H117.65L118.575 19.1011H123.258L124.183 22.8081H128.431L124.255 8.33471C124.168 7.99503 123.995 7.71442 123.734 7.52243H123.72ZM119.341 16.0588L120.338 12.0564C120.396 11.8054 120.454 11.5248 120.497 11.2294C120.555 10.934 120.584 10.6682 120.613 10.4023H121.205C121.249 10.6534 121.292 10.934 121.336 11.2294C121.379 11.5248 121.437 11.7906 121.494 12.0564L122.492 16.0588H119.327H119.341Z" fill="#50C2B8"/>
<path d="M139.328 14.7C139.328 15.1579 139.328 15.6009 139.372 16.0588C139.401 16.5166 139.444 16.9744 139.487 17.4323H139.285C139.112 16.9449 138.924 16.4871 138.736 16.0588C138.548 15.6157 138.346 15.2169 138.143 14.8625L134.559 8.46763C134.328 8.0541 134.097 7.75872 133.895 7.53719C133.692 7.31566 133.36 7.22705 132.926 7.22705H131.091C130.123 7.22705 129.631 7.72919 129.631 8.71869V22.8081H133.504V15.0693C133.504 14.641 133.49 14.2127 133.447 13.7548C133.403 13.297 133.36 12.8539 133.302 12.4109H133.504C133.62 12.8539 133.765 13.2822 133.952 13.7253C134.126 14.1684 134.299 14.5671 134.487 14.9511L138.216 21.597C138.432 22.0106 138.649 22.3059 138.866 22.5275C139.083 22.7342 139.401 22.8376 139.849 22.8376H141.699C142.652 22.8376 143.129 22.3355 143.129 21.346V7.25659H139.3L139.328 14.7296V14.7Z" fill="#50C2B8"/>
<path d="M154.069 13.8428V19.1005C153.997 19.13 153.925 19.1595 153.838 19.1891C153.578 19.2925 153.289 19.3663 152.971 19.4106C152.653 19.4697 152.306 19.4845 151.916 19.4845C151.338 19.4845 150.89 19.3515 150.572 19.1005C150.254 18.8494 150.023 18.3916 149.878 17.7417C149.734 17.0919 149.661 16.191 149.661 15.0391C149.661 14.1234 149.705 13.3702 149.791 12.7647C149.878 12.1739 150.023 11.7013 150.225 11.3764C150.427 11.0515 150.702 10.8152 151.049 10.6971C151.396 10.5789 151.829 10.5198 152.335 10.5198C152.971 10.5198 153.549 10.5198 154.055 10.5198C154.575 10.5198 155.081 10.5346 155.572 10.5494C156.078 10.5494 156.584 10.5641 157.118 10.5789L157.422 7.50701C156.916 7.35932 156.41 7.24117 155.904 7.15256C155.399 7.06394 154.849 7.00487 154.271 6.96056C153.693 6.91626 153.029 6.88672 152.277 6.88672C150.572 6.88672 149.199 7.13779 148.173 7.65469C147.147 8.1716 146.41 9.01342 145.962 10.1949C145.514 11.3764 145.283 12.9714 145.283 14.9948C145.283 17.0181 145.456 18.4802 145.803 19.6617C146.15 20.8579 146.699 21.7145 147.436 22.2757C148.173 22.8222 149.127 23.1028 150.268 23.1028C151.078 23.1028 151.786 22.9699 152.407 22.704C153.029 22.4382 153.549 22.1281 153.968 21.7588C154.214 21.5521 154.416 21.3453 154.575 21.1533L154.951 22.7779H158V13.8133H154.026L154.069 13.8428Z" fill="#50C2B8"/>
</g>
</svg>
