<svg width="162" height="30" viewBox="0 0 162 30" fill="none" xmlns="http://www.w3.org/2000/svg">
<g>
<path d="M30.5092 1.06803C30.5092 0.226214 29.5609 -0.275924 28.8645 0.181907L24.034 3.40149C23.7673 3.37196 23.5006 3.37196 23.219 3.37196H10.7871C10.5204 3.37196 10.2389 3.37196 9.97219 3.40149L5.14167 0.181907C4.44525 -0.290692 3.49695 0.211446 3.49695 1.06803V6.19279C3.37841 6.29617 3.25986 6.39955 3.15613 6.5177C1.20022 8.46717 0 11.1551 0 14.1236C0 18.4065 2.50416 22.0987 6.11963 23.8267C6.4308 23.9744 6.74196 24.1073 7.08276 24.2254C7.26057 24.2845 7.43842 24.3436 7.63105 24.4026L24.9527 30V24.7276C27.2494 24.3731 29.2942 23.2802 30.8649 21.7147C32.8208 19.7653 34.021 17.0773 34.021 14.1088C34.021 10.9631 32.6726 8.14226 30.524 6.17802V1.05326L30.5092 1.06803ZM9.0683 17.1955C7.86808 17.1955 6.89017 16.2208 6.89017 15.0245C6.89017 13.8282 7.86808 12.8535 9.0683 12.8535C10.2685 12.8535 11.2613 13.8282 11.2613 15.0245C11.2613 16.2208 10.2833 17.1955 9.0683 17.1955ZM16.9957 16.5604C16.1363 16.5604 15.4547 15.8663 15.4547 15.0245C15.4547 14.1827 16.1511 13.4885 16.9957 13.4885C17.8403 13.4885 18.5367 14.1827 18.5367 15.0245C18.5367 15.8663 17.8403 16.5604 16.9957 16.5604ZM24.9379 17.1955C23.7376 17.1955 22.7597 16.2208 22.7597 15.0245C22.7597 13.8282 23.7376 12.8535 24.9379 12.8535C26.1381 12.8535 27.1308 13.8282 27.1308 15.0245C27.1308 16.2208 26.1529 17.1955 24.9379 17.1955Z" fill="#50C2B8"/>
<path d="M53.4619 14.7001C53.4619 15.1579 53.4767 15.601 53.5063 16.0588C53.5359 16.5167 53.5804 16.9745 53.6248 17.4323H53.4174C53.2396 16.945 53.047 16.4871 52.8543 16.0588C52.6617 15.6158 52.4543 15.217 52.2468 14.8626L48.5721 8.4677C48.335 8.05418 48.0979 7.7588 47.8905 7.53727C47.683 7.33051 47.3422 7.22713 46.8977 7.22713H45.0159C44.0231 7.22713 43.5193 7.72927 43.5193 8.71877V22.8082H47.4904V15.0693C47.4904 14.641 47.4756 14.2127 47.4311 13.7549C47.3867 13.2971 47.3422 12.854 47.2829 12.411H47.4904C47.6089 12.854 47.7571 13.2823 47.9497 13.7254C48.1276 14.1684 48.3054 14.5672 48.498 14.9512L52.3209 21.5971C52.5431 22.0106 52.7654 22.306 52.9877 22.5275C53.2099 22.7343 53.5359 22.8377 53.9953 22.8377H55.8919C56.8699 22.8377 57.3589 22.3356 57.3589 21.346V7.25667H53.4322L53.4619 14.7296V14.7001Z" fill="#50C2B8"/>
<path d="M73.2137 7.22603H68.8129L66.5755 12.4837C66.457 12.7938 66.3532 13.1483 66.2643 13.5175C66.1754 13.8867 66.1162 14.2412 66.0421 14.5809H65.7754C65.7013 14.256 65.6272 13.9015 65.5531 13.5323C65.479 13.1631 65.3901 12.8234 65.2419 12.4985L62.9748 7.21126H58.574L63.7602 17.8152V22.7923H68.0128V17.7709L73.1841 7.21126L73.2137 7.22603Z" fill="#50C2B8"/>
<path d="M82.1625 7.5225C81.8958 7.33051 81.5994 7.22713 81.2438 7.22713H77.3172C76.9764 7.22713 76.6652 7.33051 76.3984 7.5225C76.1317 7.7145 75.9539 7.9951 75.865 8.33478L71.5828 22.8082H75.9391L76.8875 19.1012H81.6883L82.6366 22.8082H86.993L82.7107 8.33478C82.6218 7.9951 82.444 7.7145 82.1773 7.5225H82.1625ZM77.6579 16.0588L78.6804 12.0565C78.7396 11.8054 78.7989 11.5248 78.8434 11.2295C78.9026 10.9341 78.9323 10.6682 78.9619 10.4024H79.5694C79.6139 10.6535 79.6583 10.9341 79.7028 11.2295C79.7472 11.5248 79.8065 11.7907 79.8658 12.0565L80.8881 16.0588H77.6432H77.6579Z" fill="#50C2B8"/>
<path d="M98.166 14.7001C98.166 15.1579 98.1808 15.601 98.2105 16.0588C98.2401 16.5167 98.2846 16.9745 98.3291 17.4323H98.1216C97.9438 16.945 97.7511 16.4871 97.5585 16.0588C97.3659 15.6158 97.1585 15.217 96.951 14.8626L93.2763 8.4677C93.0392 8.05418 92.8021 7.7588 92.5947 7.53727C92.3872 7.33051 92.0464 7.22713 91.6019 7.22713H89.7201C88.7273 7.22713 88.2235 7.72927 88.2235 8.71877V22.8082H92.1946V15.0693C92.1946 14.641 92.1798 14.2127 92.1353 13.7549C92.0909 13.2971 92.0464 12.854 91.9872 12.411H92.1946C92.3131 12.854 92.4613 13.2823 92.6539 13.7254C92.8317 14.1684 93.0096 14.5672 93.2022 14.9512L97.0251 21.5971C97.2474 22.0106 97.4696 22.306 97.6919 22.5275C97.9142 22.7343 98.2401 22.8377 98.6995 22.8377H100.596C101.574 22.8377 102.063 22.3356 102.063 21.346V7.25667H98.1364L98.166 14.7296V14.7001Z" fill="#50C2B8"/>
<path d="M117.918 7.22603H113.517L111.28 12.4837C111.161 12.7938 111.057 13.1483 110.969 13.5175C110.88 13.8867 110.82 14.2412 110.746 14.5809H110.48C110.405 14.256 110.331 13.9015 110.257 13.5323C110.183 13.1631 110.094 12.8234 109.946 12.4985L107.679 7.21126H103.278L108.464 17.8152V22.7923H112.717V17.7709L117.888 7.21126L117.918 7.22603Z" fill="#50C2B8"/>
<path d="M126.852 7.5225C126.586 7.33051 126.289 7.22713 125.934 7.22713H122.007C121.666 7.22713 121.355 7.33051 121.088 7.5225C120.821 7.7145 120.644 7.9951 120.555 8.33478L116.273 22.8082H120.629L121.577 19.1012H126.378L127.326 22.8082H131.683L127.4 8.33478C127.312 7.9951 127.134 7.7145 126.867 7.5225H126.852ZM122.363 16.0588L123.385 12.0565C123.444 11.8054 123.503 11.5248 123.548 11.2295C123.607 10.9341 123.637 10.6682 123.666 10.4024H124.274C124.318 10.6535 124.363 10.9341 124.407 11.2295C124.452 11.5248 124.511 11.7907 124.57 12.0565L125.593 16.0588H122.348H122.363Z" fill="#50C2B8"/>
<path d="M142.856 14.7001C142.856 15.1579 142.856 15.601 142.9 16.0588C142.93 16.5167 142.974 16.9745 143.019 17.4323H142.811C142.634 16.945 142.441 16.4871 142.248 16.0588C142.056 15.6158 141.848 15.217 141.641 14.8626L137.966 8.4677C137.729 8.05418 137.492 7.7588 137.284 7.53727C137.077 7.31574 136.736 7.22713 136.292 7.22713H134.41C133.417 7.22713 132.913 7.72927 132.913 8.71877V22.8082H136.884V15.0693C136.884 14.641 136.87 14.2127 136.825 13.7549C136.781 13.2971 136.736 12.854 136.677 12.411H136.884C137.003 12.854 137.151 13.2823 137.344 13.7254C137.521 14.1684 137.699 14.5672 137.892 14.9512L141.715 21.5971C141.937 22.0106 142.159 22.306 142.382 22.5275C142.604 22.7343 142.93 22.8377 143.389 22.8377H145.286C146.264 22.8377 146.753 22.3356 146.753 21.346V7.25667H142.826L142.856 14.7296V14.7001Z" fill="#50C2B8"/>
<path d="M157.97 13.8428V19.1005C157.896 19.13 157.822 19.1596 157.733 19.1891C157.466 19.2925 157.17 19.3663 156.844 19.4106C156.518 19.4697 156.162 19.4845 155.762 19.4845C155.169 19.4845 154.71 19.3516 154.384 19.1005C154.058 18.8494 153.821 18.3916 153.673 17.7418C153.525 17.0919 153.45 16.191 153.45 15.0391C153.45 14.1234 153.495 13.3702 153.584 12.7647C153.673 12.1739 153.821 11.7013 154.028 11.3764C154.236 11.0515 154.517 10.8152 154.873 10.6971C155.229 10.5789 155.673 10.5198 156.192 10.5198C156.844 10.5198 157.436 10.5198 157.955 10.5198C158.488 10.5198 159.007 10.5346 159.511 10.5494C160.029 10.5494 160.548 10.5642 161.096 10.5789L161.407 7.50703C160.889 7.35934 160.37 7.24119 159.852 7.15257C159.333 7.06396 158.77 7.00489 158.177 6.96058C157.584 6.91627 156.903 6.88674 156.132 6.88674C154.384 6.88674 152.976 7.1378 151.924 7.65471C150.872 8.17162 150.116 9.01344 149.657 10.1949C149.198 11.3764 148.961 12.9715 148.961 14.9948C148.961 17.0181 149.139 18.4802 149.494 19.6617C149.85 20.858 150.413 21.7146 151.169 22.2758C151.924 22.8222 152.902 23.1028 154.073 23.1028C154.902 23.1028 155.629 22.9699 156.266 22.7041C156.903 22.4382 157.436 22.1281 157.866 21.7589C158.118 21.5521 158.325 21.3453 158.488 21.1533L158.874 22.7779H162V13.8133H157.925L157.97 13.8428Z" fill="#50C2B8"/>
</g>
</svg>
