<svg width="24" height="23" viewBox="0 0 24 22.9104" fill="none" xmlns="http://www.w3.org/2000/svg">
<g>
<path d="M11.7678 0.587855L11.0225 0.331626C8.5537 -0.516986 5.81862 0.299627 4.21923 2.36283L3.8184 2.87988C3.74282 2.97737 3.64108 3.05131 3.52501 3.09306L3.2918 3.17694C0.651994 4.12666 -0.680602 7.07033 0.347646 9.68055L0.832354 10.911C1.19167 11.8232 1.4466 12.7731 1.59216 13.7426L1.69549 14.4307C2.42736 19.3049 6.61463 22.9104 11.5434 22.9104H12.4566C17.3853 22.9104 21.5727 19.3049 22.3045 14.4307L22.4078 13.7426C22.5534 12.7731 22.8082 11.8232 23.1676 10.911L23.6523 9.68055C24.6806 7.07033 23.348 4.12666 20.7082 3.17698L20.475 3.0931C20.3589 3.05136 20.2571 2.97742 20.1816 2.87992L19.7807 2.36288C18.1814 0.299628 15.4463 -0.516986 12.9776 0.331626L12.2322 0.587855C12.0817 0.639545 11.9183 0.639545 11.7678 0.587855Z" fill="#EFEDEE"/>
<path d="M13.9727 22.4296H13.0255C7.91276 22.4296 3.56917 18.9502 2.80999 14.2466L2.70279 13.5826C2.55178 12.647 2.28739 11.7304 1.91466 10.8501L1.41185 9.66274C0.345185 7.14384 1.72754 4.30321 4.4659 3.38674L4.70779 3.3058C4.82816 3.2655 4.93376 3.19417 5.01214 3.1001L5.42793 2.60116C6.789 0.967783 8.94294 0.144895 11.0868 0.353779L11.0225 0.331674C8.5537 -0.516987 5.81862 0.299627 4.21923 2.36283L3.8184 2.87988C3.74282 2.97737 3.64108 3.05131 3.52501 3.09305L3.2918 3.17694C0.651994 4.12666 -0.680602 7.07033 0.347646 9.68055L0.832354 10.911C1.19167 11.8231 1.4466 12.7731 1.59216 13.7426L1.69549 14.4307C2.42736 19.3048 6.61463 22.9103 11.5434 22.9103H12.4566C13.7293 22.9103 14.9521 22.6699 16.0793 22.2292C15.3976 22.361 14.6929 22.4296 13.9727 22.4296Z" fill="#E4E1E5"/>
<path d="M9.33879 6.91608C10.5095 6.67835 11.2392 5.40568 10.9687 4.07349C10.6982 2.74129 9.52986 1.85405 8.35916 2.09178C7.18845 2.3295 6.4587 3.60217 6.72922 4.93437C6.99974 6.26656 8.16808 7.1538 9.33879 6.91608Z" fill="#FFC3E5"/>
<path d="M5.32844 10.5512C6.42997 9.97875 6.79481 8.4985 6.14334 7.24502C5.49187 5.99154 4.07078 5.43949 2.96925 6.01199C1.86772 6.58448 1.50288 8.06473 2.15435 9.31821C2.80582 10.5717 4.22691 11.1237 5.32844 10.5512Z" fill="#FFC3E5"/>
<path d="M17.3141 4.93628C17.5846 3.60409 16.8549 2.33142 15.6842 2.09369C14.5135 1.85596 13.3451 2.74321 13.0746 4.0754C12.8041 5.40759 13.5338 6.68026 14.7045 6.91799C15.8752 7.15571 17.0436 6.26847 17.3141 4.93628Z" fill="#FFC3E5"/>
<path d="M21.8721 9.31748C22.5236 8.064 22.1587 6.58375 21.0572 6.01125C19.9557 5.43876 18.5346 5.9908 17.8831 7.24429C17.2316 8.49777 17.5965 9.97802 18.698 10.5505C19.7995 11.123 21.2206 10.571 21.8721 9.31748Z" fill="#FFC3E5"/>
<path d="M16.1577 12.9993C15.6196 12.7685 15.1602 12.3839 14.83 11.9004C14.179 10.947 13.0839 10.321 11.8423 10.321C10.5446 10.321 9.4072 11.0049 8.76945 12.0317C8.45647 12.5356 7.99454 12.9287 7.46393 13.1938C5.87564 13.9875 4.86337 15.1876 4.86337 16.5307C4.86337 18.9206 8.06785 20.8581 12.0208 20.8581C15.9738 20.8581 19.1782 18.9206 19.1782 16.5307C19.1781 15.0727 17.9854 13.7833 16.1577 12.9993Z" fill="#FFC3E5"/>
</g>
</svg>
